<?xml version="1.0" encoding="utf-8"?>
<!-- Generator: Adobe Illustrator 19.0.0, SVG Export Plug-In . SVG Version: 6.00 Build 0)  -->
<svg version="1.1" id="Layer_1" xmlns="http://www.w3.org/2000/svg" xmlns:xlink="http://www.w3.org/1999/xlink" x="0px" y="0px"
	 viewBox="0 0 200 100" style="enable-background:new 0 0 200 100;" xml:space="preserve">
<style type="text/css">
	.st0{fill:#FF5050;}
</style>
<g id="XMLID_1_">
	<path id="XMLID_28_" class="st0" d="M57.3,12.8c-2.2-1.6-4.9-2.8-7.9-3.6c-3.1-0.8-6.5-1.2-10.1-1.2c-3.4,0-6.6,0.3-9.7,0.8
		c-3.1,0.6-6,1.4-8.8,2.4c-2.7,1-5.2,2.3-7.5,3.7c-2.2,1.4-4.2,3-5.8,4.8c-1.6,1.7-2.9,3.6-3.7,5.6c-0.9,2-1.3,4.1-1.3,6.2
		c0,2,0.4,3.7,1.1,5.3c0.7,1.6,1.7,2.9,2.8,4s2.6,1.9,4.2,2.5c1.6,0.6,3.2,0.9,5,0.9c1.9,0,3.6-0.2,5.1-0.6c1.5-0.4,2.7-0.9,3.8-1.4
		c1-0.5,1.8-1,2.4-1.4c0.5-0.4,0.8-0.7,0.9-0.7c0.3-0.2,0.4-0.5,0.4-0.9c0-0.3-0.1-0.7-0.4-0.9c-0.3-0.3-0.6-0.4-0.9-0.4
		c-0.3,0-0.6,0.1-0.9,0.4c0,0-0.3,0.2-0.8,0.6c-0.5,0.4-1.1,0.7-2,1.2s-1.9,0.8-3.2,1.1c-1.3,0.3-2.7,0.5-4.3,0.5
		c-1.4,0-2.7-0.2-3.9-0.6c-1.2-0.4-2.4-1-3.3-1.9S6.5,37.1,6,35.9c-0.6-1.2-0.9-2.7-0.9-4.4c0-1.9,0.4-3.7,1.2-5.5s2-3.4,3.5-5
		c1.5-1.5,3.3-3,5.4-4.3c2.1-1.3,4.4-2.4,7-3.3c2.5-0.9,5.3-1.6,8.2-2.2c2.9-0.5,5.9-0.8,9-0.8c3.3,0,6.3,0.3,9,1s5.1,1.7,7.1,3.1
		c2,1.3,3.5,3,4.6,4.9c1.1,1.9,1.6,4.2,1.6,6.7c0,2.5-0.5,4.6-1.4,6.5c-0.9,1.9-2.3,3.5-4,4.8c-1.7,1.3-3.8,2.3-6.2,3
		c-2.4,0.7-5.1,1-8,1c-0.4,0-0.7,0.1-0.9,0.4c-0.3,0.3-0.4,0.6-0.4,0.9c0,0.4,0.1,0.8,0.4,1c0.3,0.2,0.6,0.3,1,0.3
		c3.3,0,6.2-0.4,8.9-1.2s5-2,7-3.5c1.9-1.5,3.4-3.4,4.5-5.6c1.1-2.2,1.6-4.7,1.6-7.5c0-2.9-0.6-5.4-1.8-7.7
		C61.2,16.3,59.5,14.3,57.3,12.8z"/>
	<path id="XMLID_29_" class="st0" d="M44.4,20.4c0.2-0.2,0.3-0.3,0.5-0.5s0.2-0.4,0.2-0.6c0-0.4-0.1-0.7-0.4-1
		c-0.3-0.2-0.6-0.4-0.9-0.4c-0.1,0-0.2,0-0.3,0.1c-0.1,0-0.3,0.1-0.3,0.1c-1.6,1.1-2.9,2.3-3.8,3.8c-0.9,1.4-1.7,2.9-2.2,4.5
		c-0.5,1.6-0.8,3.2-0.9,4.9C36,32.9,36,34.5,36,36.1v4.4c0,2.6-0.2,5.1-0.6,7.5c-0.4,2.3-1.1,4.4-2,6.1c-1,1.7-2.3,3.1-4.1,4.1
		c-1.7,1-4,1.5-6.7,1.5c-2.4,0-4.5-0.5-6.4-1.5c-1.9-1-3.6-2.6-5-4.6c-0.1-0.2-0.3-0.3-0.5-0.5c-0.2-0.1-0.4-0.2-0.6-0.2
		c-0.4,0-0.7,0.1-1,0.4c-0.2,0.3-0.4,0.6-0.4,0.9c0,0.1,0,0.2,0.1,0.4c0,0.1,0.1,0.2,0.1,0.3C9.7,56,10.5,57,11.5,58
		c1,0.9,2.1,1.7,3.3,2.3s2.4,1.1,3.8,1.5c1.3,0.3,2.7,0.5,4.1,0.5c3.1,0,5.6-0.6,7.7-1.7c2-1.1,3.7-2.7,4.9-4.6s2.3-4.2,2.8-6.8
		c0.5-2.6,1-5.3,1-8.2v-4.4c0-1.7-0.2-3.3-0.1-4.8c0.1-1.5,0.3-3,0.7-4.3c0.4-1.4,0.9-2.6,1.7-3.8C42.1,22.5,43.1,21.4,44.4,20.4z"
		/>
	<path id="XMLID_32_" class="st0" d="M146.8,30.3c-0.4-0.2-0.8-0.2-1.2-0.2c-0.4,0-0.8,0.1-1.2,0.2c-0.4,0.2-0.7,0.4-1,0.7
		c-0.3,0.3-0.5,0.6-0.7,1c-0.2,0.4-0.2,0.8-0.2,1.2c0,0.9,0.3,1.6,0.9,2.2c0.6,0.6,1.4,0.9,2.2,0.9c0.9,0,1.6-0.3,2.2-0.9
		c0.6-0.6,0.9-1.4,0.9-2.2c0-0.4-0.1-0.8-0.2-1.2c-0.2-0.4-0.4-0.7-0.7-1C147.5,30.7,147.2,30.5,146.8,30.3z M146.4,34
		c-0.2,0.2-0.5,0.3-0.8,0.3c-0.3,0-0.6-0.1-0.8-0.3c-0.2-0.2-0.3-0.5-0.3-0.8c0-0.3,0.1-0.6,0.3-0.8c0.2-0.2,0.5-0.4,0.8-0.4
		c0.3,0,0.6,0.1,0.8,0.4c0.2,0.2,0.4,0.5,0.4,0.8C146.8,33.5,146.7,33.8,146.4,34z"/>
	<path id="XMLID_35_" class="st0" d="M197.7,49.3c-0.2-0.3-0.6-0.4-1-0.4c-0.3,0-0.5,0.1-0.7,0.2c-0.2,0.1-0.4,0.3-0.5,0.6
		c-0.5,1.1-1.1,2.2-1.8,3.2c-0.7,1-1.4,2-2.2,2.9c-0.8,0.9-1.6,1.8-2.4,2.7c-0.8,0.8-1.7,1.7-2.5,2.5c0.1-1.9,0.2-3.6,0.3-5.3
		c0.1-1.7,0.3-3.1,0.4-4.4c0.1-1.2,0.2-2.2,0.3-3s0.1-1.2,0.1-1.2c0-0.4-0.1-0.7-0.4-0.9c-0.3-0.3-0.6-0.4-0.9-0.4
		c-0.3,0-0.6,0.1-0.8,0.3c-0.2,0.2-0.4,0.4-0.4,0.7c-0.7,3.7-1.6,6.6-2.7,8.5c-1.1,2-2.3,2.9-3.6,2.9c-1,0-1.8-0.4-2.3-1.1
		c-0.5-0.7-0.7-1.7-0.7-3c0-1.3,0.1-2.4,0.4-3.5s0.5-2,0.8-2.7c0.3-0.8,0.6-1.3,0.8-1.8c0.2-0.4,0.4-0.6,0.3-0.6
		c0.1-0.2,0.2-0.4,0.2-0.7c0-0.3-0.1-0.7-0.4-0.9c-0.2-0.3-0.6-0.4-1-0.4c-0.5,0-0.8,0.2-1.1,0.6c0,0-0.1,0.2-0.4,0.7
		c-0.3,0.5-0.6,1.2-0.9,2c-0.3,0.7-0.5,1.5-0.7,2.3c-0.2,0.1-0.3,0.3-0.4,0.5c-0.5,1-1.1,2.1-1.9,3.3c-0.8,1.1-1.7,2.3-2.8,3.4
		c-1.1,1.1-2.3,2.1-3.7,3.1c-1.4,1-3,1.9-4.7,2.6c0-0.7,0.1-1.6,0.1-2.6c0-1,0.1-2.1,0.1-3.2c0-1.1,0-2.2,0-3.3c0-1.1,0-2.1,0-3.1
		c1-2.3,2.3-4.6,3.5-7c1.1-2.4,2-4.8,2.9-7.2c0.8-2.5,1.5-5,1.9-7.7c0.5-2.6,0.7-5.4,0.7-8.2c0-1.3-0.1-2.6-0.3-3.9
		c-0.2-1.2-0.5-2.3-0.9-3.2c-0.4-0.9-1-1.6-1.6-2.2c-0.7-0.5-1.5-0.8-2.5-0.8c-1.2,0-2.2,0.6-3,1.7c-0.8,1.1-1.4,2.8-1.9,4.9
		c-0.5,2.2-0.8,4.8-1,7.9c-0.2,3.1-0.3,6.7-0.4,10.6c0,2.1-0.1,4.3-0.1,6.6c0,2.3,0,4.7-0.1,7.1c0,0.2,0,0.5,0,0.7
		c0,0.1-0.1,0.1-0.1,0.2c-0.7,1.4-1.4,2.7-2.2,3.9c-0.7,1.2-1.5,2.2-2.2,3s-1.4,1.5-2.1,1.9c-0.7,0.5-1.4,0.7-2,0.7
		c-0.4,0-0.8-0.1-1.2-0.2c-0.4-0.1-0.8-0.4-1.2-0.8c-0.4-0.4-0.7-1-0.9-1.8c-0.2-0.8-0.4-1.7-0.4-3c0-0.9,0-1.9,0.1-3
		c0.1-1.1,0.1-2.1,0.2-3.1c0.1-1,0.2-1.8,0.2-2.5c0.1-0.7,0.1-1.1,0.1-1.2c0-0.3-0.1-0.7-0.3-0.9c-0.2-0.3-0.5-0.4-0.9-0.4
		c-0.4,0-0.7,0.1-1,0.4c-0.2,0.2-0.4,0.5-0.4,0.8c-0.2,1.9-0.4,3.8-0.5,5.7c-0.1,0.1-0.2,0.3-0.3,0.4c-0.2,0.6-0.6,1.3-1.1,2.3
		c-0.5,1-1.1,1.9-1.8,2.8s-1.4,1.7-2.2,2.4c-0.8,0.7-1.6,1-2.4,1c-0.7,0-1.3-0.2-1.9-0.6c-0.6-0.4-1.2-0.9-1.7-1.6
		c-0.5-0.7-1-1.5-1.4-2.4c-0.4-0.9-0.8-1.9-1.1-3c0.4-0.5,0.8-1.2,1.2-2.1c0.5-0.9,0.9-2,1.4-3.3c0.5-1.3,0.9-2.7,1.4-4.2
		c0.5-1.5,0.9-3,1.2-4.6c0.4-1.6,0.8-3.2,1-4.8c0.2-1.6,0.5-3.1,0.5-4.5V27h17.3c0.4,0,0.7-0.1,0.9-0.4c0.3-0.2,0.4-0.5,0.4-0.9
		c0-0.4-0.1-0.9-0.4-1.1c-0.3-0.2-0.6-0.6-0.9-0.6h-17.7c-0.1,0-0.2-1.3-0.4-2s-0.4-1.2-0.7-1.7c-0.3-0.5-0.7-0.8-1.1-1.1
		c-0.4-0.3-0.9-0.4-1.5-0.4c-0.6,0-1.2,0.2-1.6,0.4c-0.5,0.3-0.9,0.7-1.4,1.2c-0.4,0.5-0.8,0.9-1.1,1.6c-0.3,0.7-0.6,2-0.8,2h-13
		c-0.4,0-0.7,0.4-0.9,0.6c-0.3,0.2-0.4,0.6-0.4,1c0,0.4,0.1,0.8,0.4,1c0.3,0.2,0.6,0.4,0.9,0.4h12.5c-0.2,1-0.4,2.3-0.6,3.5
		c-0.1,1.2-0.2,2.4-0.3,3.5c-0.1,1.1-0.1,2.2-0.1,3.3c0,1,0,1.9,0,2.7c0,3.1,0.2,5.9,0.7,8.4c0.1,0.7,0.3,1.4,0.4,2
		c-0.4,0.9-0.9,1.9-1.5,2.8c-0.7,1.2-1.5,2.2-2.4,3.2c-0.9,1-1.9,1.9-3,2.5c-1.1,0.6-2.3,1.1-3.6,1.1c-0.1,0-0.2,0-0.3,0
		c-0.1,0-0.2-0.2-0.3-0.2c0.9-0.6,1.5-1.4,1.9-2.3c0.4-0.9,0.6-1.8,0.6-2.8c0-0.7-0.1-1.5-0.4-2.2c-0.3-0.7-0.6-1.5-1-2.4
		c-0.4-0.8-0.9-1.8-1.4-2.8c-0.5-1-1.1-2.2-1.6-3.5c0.1-0.6,0.2-1,0.3-1.4c0.1-0.4,0.1-0.7,0.1-1.1c0-0.7-0.2-1.2-0.5-1.7
		c-0.3-0.5-0.7-0.7-1.3-0.7c-0.6,0-1,0.2-1.4,0.7c-0.3,0.5-0.5,1.1-0.5,1.9c0,0.4,0,0.8,0.1,1.1c0.1,0.4,0.2,0.8,0.3,1.4
		c-0.2,0.9-0.4,1.9-0.7,2.7c-0.3,0.8-0.6,1.7-1.2,2.7c-0.1,0.1-0.2,0.3-0.3,0.4c-0.2,0.4-0.5,1-0.8,1.6c-0.3,0.6-0.6,1.2-1,1.9
		c-0.4,0.6-0.8,1.3-1.3,1.9c-0.5,0.6-1,1.2-1.5,1.7c-0.5,0.5-1.1,0.9-1.6,1.2c-0.5,0.3-1.1,0.5-1.6,0.5c-0.9,0-1.5-0.3-2-0.9
		c-0.5-0.6-0.8-1.3-1.1-2c-0.2-0.8-0.4-1.6-0.5-2.4s-0.1-1.4-0.1-1.9c0-0.3-0.2-0.6-0.4-0.9C96.2,50.2,96,50,95.6,50
		c-0.3,0-0.6,0.1-0.9,0.3c-0.3,0.2-0.4,0.5-0.5,0.8c-0.2,1.2-0.4,2.2-0.8,3.1c-0.4,0.9-0.9,1.6-1.4,2.2c-0.5,0.6-1,1-1.6,1.3
		c-0.5,0.3-1,0.4-1.4,0.4c-0.6,0-1.1-0.1-1.5-0.3c-0.4-0.2-0.7-0.5-0.9-0.9c-0.2-0.4-0.4-0.8-0.5-1.2c-0.1-0.5-0.1-0.9-0.1-1.3
		c0-1.4,0.2-2.6,0.7-3.7c0.5-1,1-1.9,1.7-2.6c0.7-0.7,1.4-1.2,2.2-1.5c0.8-0.3,1.6-0.5,2.3-0.5c0.5,0,0.9,0.1,1.3,0.2
		c0.4,0.1,0.7,0.2,1,0.4c0.3,0.1,0.5,0.3,0.7,0.4c0.2,0.1,0.3,0.2,0.3,0.3c0.3,0.3,0.6,0.4,0.9,0.4c0.3,0,0.6-0.1,0.9-0.4
		c0.3-0.3,0.4-0.6,0.4-0.9c0-0.3-0.1-0.6-0.4-0.9c0,0-0.2-0.1-0.4-0.3c-0.2-0.2-0.6-0.4-1-0.6c-0.4-0.2-0.9-0.4-1.5-0.6
		c-0.6-0.2-1.3-0.3-2-0.3c-1.1,0-2.2,0.2-3.3,0.7c-1.1,0.5-2.2,1.2-3.1,2.1c-0.8,0.8-1.4,1.7-2,2.7c-0.1,0-0.1,0-0.2,0.1
		c-0.2,0.1-0.4,0.3-0.5,0.5c-0.3,0.6-0.7,1.5-1.3,2.5c-0.5,1-1.2,2-1.9,3c-0.7,1-1.5,1.9-2.4,2.6c-0.9,0.7-1.7,1.1-2.7,1.1
		c-1.4,0-2.5-0.8-3.5-2.5c-1-1.7-1.7-4-2.3-6.9c1.3-2.4,2.5-4.8,3.6-7.3c1.1-2.5,2.1-5,2.9-7.5c0.8-2.5,1.5-5,2-7.4
		c0.5-2.5,0.7-4.9,0.7-7.2c0-1.9-0.1-3.5-0.3-4.8c-0.2-1.3-0.6-2.3-1-3.2c-0.4-0.8-0.9-1.4-1.5-1.8c-0.6-0.4-1.3-0.5-2.1-0.5
		c-1,0-1.8,0.4-2.6,1.2c-0.8,0.8-1.4,1.9-2,3.2c-0.6,1.3-1.1,2.9-1.5,4.7c-0.4,1.8-0.8,3.7-1.1,5.7s-0.5,4-0.6,6.1
		c-0.1,2.1-0.2,4.1-0.2,6c0,1.3,0,2.9,0.1,4.6c0.1,1.7,0.2,3.5,0.5,5.4c0.2,1.8,0.6,3.6,1,5.4c0.4,1.8,1,3.3,1.7,4.7
		c0.7,1.4,1.5,2.5,2.5,3.4c1,0.9,2.2,1.3,3.6,1.3c0.9,0,1.8-0.2,2.5-0.6s1.5-0.9,2.3-1.5c0.7-0.6,1.4-1.3,2-2.1
		c0.4-0.5,0.7-0.9,1-1.4c0.1,0.4,0.2,0.8,0.3,1.1c0.3,0.8,0.6,1.4,1.1,2c0.5,0.6,1.1,1,1.8,1.3c0.7,0.3,1.5,0.5,2.3,0.5
		c1.1,0,2.2-0.4,3.3-1.2c1.1-0.8,2-1.8,2.8-3.1c0.4,1.3,1.1,2.4,2,3.2c0.9,0.9,2,1.3,3.4,1.3c0.9,0,1.8-0.2,2.7-0.7
		c0.9-0.5,1.7-1,2.4-1.7s1.4-1.5,2-2.3c0.6-0.8,1.1-1.6,1.6-2.4c0.5-0.8,0.8-1.4,1.1-2c0.3-0.5,0.4-0.9,0.5-1.1
		c0.1-0.1,0.2-0.3,0.3-0.5c0.3-0.5,0.5-1,0.7-1.5c0.2-0.5,0.4-0.9,0.5-1.2c0.3,0.7,0.6,1.3,0.9,1.9c0.3,0.6,0.6,1.2,0.9,1.8
		c0.3,0.6,0.5,1.2,0.7,1.7c0.2,0.6,0.3,1.2,0.3,1.7c0,0.3-0.1,0.6-0.2,1c-0.1,0.4-0.3,0.7-0.5,1.1c-0.2,0.3-0.5,0.6-0.9,0.8
		c-0.4,0.2-0.8,0.3-1.4,0.3c-0.3,0-0.5,0-0.8-0.1c-0.3-0.1-0.5-0.2-0.7-0.3c-0.2-0.1-0.4-0.2-0.5-0.3s-0.2-0.2-0.2-0.2
		c-0.3-0.3-0.6-0.4-0.9-0.4c-0.3,0-0.7,0.1-0.9,0.4c-0.3,0.3-0.4,0.6-0.4,0.9c0,0.2,0.1,0.5,0.2,0.7c0.8,1.2,1.9,2.1,3.2,2.7
		c1.3,0.5,2.8,0.8,4.3,0.8c1.3,0,2.5-0.2,3.6-0.6c1.1-0.4,2.1-0.9,3-1.5s1.7-1.4,2.5-2.2c0.7-0.8,1.4-1.6,2-2.5
		c0.4-0.6,0.7-1.1,1-1.7c0.2,0.5,0.4,0.9,0.6,1.4c0.9,1.9,2,3.3,3.2,4.4c1.3,1,2.7,1.6,4.3,1.6c0.9,0,1.8-0.2,2.6-0.7
		c0.8-0.5,1.6-1,2.3-1.7c0.7-0.7,1.3-1.5,1.9-2.3c0.3-0.5,0.6-0.9,0.9-1.3c0.1,0.6,0.2,1.3,0.3,1.9c0.3,1,0.7,1.9,1.2,2.6
		c0.5,0.7,1.2,1.3,2,1.8c0.8,0.4,1.7,0.7,2.7,0.7c0.8,0,1.6-0.2,2.4-0.6c0.8-0.4,1.5-0.9,2.3-1.5c0.7-0.6,1.4-1.4,2-2.2
		c0.6-0.8,1.2-1.6,1.8-2.4c0.1-0.1,0.2-0.2,0.2-0.4c0,0.4,0,0.8,0,1.2c0,2.4-0.1,4.7-0.1,6.9c0,2.2-0.1,4.2-0.1,6.1s0,3.6,0,5
		c0,2.9,0.1,5.6,0.1,8c0.1,2.5,0.3,4.6,0.6,6.4c0.4,1.8,0.9,3.2,1.7,4.3c0.8,1,1.8,1.5,3.2,1.5c0.9,0,1.8-0.3,2.5-0.8
		c0.7-0.5,1.4-1.3,1.9-2.2c0.5-0.9,0.9-2.1,1.2-3.3c0.3-1.3,0.4-2.7,0.4-4.1c0-1.6-0.2-3.3-0.5-5c-0.3-1.7-0.8-3.5-1.4-5.2
		c-0.6-1.7-1.4-3.4-2.3-4.9c-0.9-1.6-2-3-3.3-4.3c1.9-0.9,3.7-1.9,5.2-3c1.5-1.1,2.8-2.2,3.9-3.4c0.8-0.9,1.6-1.7,2.2-2.6
		c0.1,1.6,0.6,2.8,1.4,3.8c1,1.2,2.4,1.8,4.1,1.8c1.1,0,2-0.3,2.9-1c0.9-0.6,1.6-1.5,2.2-2.6c-0.1,1-0.1,2.1-0.2,3.3
		c-0.1,1.2-0.1,2.3-0.2,3.5c-0.8,1-1.7,2.1-2.5,3.2c-0.8,1.2-1.6,2.4-2.3,3.8c-0.7,1.3-1.4,2.7-2,4.1c-0.6,1.4-1.1,2.8-1.6,4.1
		c-0.4,1.4-0.8,2.7-1,3.9c-0.2,1.3-0.4,2.5-0.4,3.6c0,2,0.4,3.6,1.3,4.8c0.9,1.1,2.1,1.7,3.8,1.7c1,0,1.9-0.2,2.6-0.7
		c0.7-0.5,1.4-1.2,1.9-2c0.6-0.9,1-1.9,1.4-3.1c0.4-1.2,0.6-2.4,0.9-3.8c0.2-1.4,0.4-2.8,0.5-4.2c0.1-1.5,0.1-3,0.1-4.4
		c0-1.8,0-3.5-0.1-5.1c-0.1-1.6-0.1-3.2,0-4.8c0.9-1.1,1.9-2.1,3-3.2c1-1.1,2.1-2.1,3.1-3.3c1-1.1,2-2.3,2.9-3.6
		c0.9-1.2,1.7-2.6,2.5-4.1c0.1-0.2,0.1-0.3,0.1-0.5C198.1,49.9,198,49.6,197.7,49.3z M160.8,41.9c0-0.8,0-1.5,0.1-2.2s0-1.4,0.1-2.1
		c0-0.7,0-1.5,0.1-2.5c0-0.4,0-1.1,0-2c0-0.9,0-1.9,0.1-3s0.1-2.4,0.2-3.7c0.1-1.3,0.2-2.6,0.3-3.9c0.1-1.3,0.3-2.6,0.4-3.8
		c0.2-1.2,0.4-2.3,0.6-3.2c0.3-0.9,0.6-1.7,0.9-2.2c0.3-0.6,0.8-0.8,1.2-0.8c0.4,0,0.8,0.2,1.2,0.5c0.3,0.4,0.6,0.9,0.8,1.5
		c0.2,0.6,0.4,1.4,0.5,2.3s0.2,1.9,0.2,3c0,2.2-0.2,4.4-0.5,6.6c-0.3,2.2-0.8,4.3-1.4,6.5c-0.6,2.1-1.3,4.1-2.1,6.1
		s-1.7,3.9-2.6,5.6C160.8,43.6,160.8,42.7,160.8,41.9z M69.4,45.1c-0.1-1.2-0.2-2.6-0.3-3.9c-0.1-1.4-0.1-2.8-0.1-4.3
		c0-1.9,0.1-3.9,0.2-5.9c0.1-2,0.3-3.9,0.5-5.7c0.2-1.8,0.5-3.5,0.8-5.1c0.3-1.6,0.7-2.9,1.1-4.1c0.4-1.2,0.8-2.1,1.3-2.7
		c0.5-0.7,0.9-1,1.4-1c0.7,0,1.3,0.6,1.8,1.8c0.4,1.2,0.7,3.1,0.7,5.9c0,1.9-0.2,4-0.6,6.1c-0.4,2.1-0.9,4.3-1.6,6.5
		c-0.7,2.2-1.4,4.3-2.3,6.4C71.3,41.2,70.4,43.2,69.4,45.1z M130.8,21.8c0.4-0.5,0.7-0.6,0.9-0.6c0.3,0,0.5,0.1,0.7,0.6
		c0.2,0.6,0.4,2.1,0.5,2.1h-3.3C130,23,130.4,22.3,130.8,21.8z M128.2,32.3c0.2-2.1,0.5-4.3,0.8-5.3h4.1c0,1-0.1,3-0.3,4.7
		c-0.2,1.7-0.5,3.5-0.9,5.3c-0.4,1.8-0.9,3.6-1.5,5.3c-0.6,1.8-1.2,3.4-1.9,4.9c-0.2-0.9-0.3-2-0.4-3.1c-0.1-1.1-0.1-2.5-0.1-4.2
		C127.9,37,128,34.4,128.2,32.3z M163.4,70.2c0.8,1.4,1.5,2.9,2,4.4c0.5,1.5,0.9,3,1.2,4.6c0.3,1.5,0.4,3,0.4,4.4
		c0,0.6,0,1.3-0.1,2.2c-0.1,0.9-0.3,1.8-0.5,2.6c-0.2,0.9-0.6,1.6-1,2.2c-0.4,0.6-1,0.9-1.7,0.9c-0.8,0-1.3-0.5-1.8-1.5
		c-0.4-1-0.7-2.4-0.9-4.1c-0.2-1.7-0.3-3.6-0.3-5.7c0-2.1,0-4.2,0-6.4c0-1,0-2.2,0-3.5c0-1.3,0-2.6,0-4.1
		C161.7,67.5,162.7,68.8,163.4,70.2z M183.7,81.2c-0.2,2-0.5,3.7-0.9,5c-0.4,1.4-0.9,2.5-1.5,3.2s-1.3,1.1-2,1.1
		c-0.9,0-1.5-0.3-1.9-1c-0.4-0.7-0.6-1.6-0.6-2.8c0-1.2,0.2-2.5,0.5-4c0.3-1.5,0.8-3.1,1.5-4.7c0.6-1.6,1.4-3.3,2.2-5
		c0.9-1.7,1.8-3.2,2.9-4.8c0,1.2,0.1,2.2,0.1,3.3c0,1,0.1,2,0.1,3C184,77,183.9,79.2,183.7,81.2z"/>
</g>
</svg>
